<svg width="364" height="183" viewBox="0 0 364 183" fill="none" xmlns="http://www.w3.org/2000/svg">
<path d="M0 10C0 4.47716 4.47715 0 10 0H354C359.523 0 364 4.47715 364 10V173C364 178.523 359.523 183 354 183H10C4.47716 183 0 178.523 0 173V10Z" fill="#FFD633"/>
<g clip-path="url(#clip0_1127_1030)">
<path d="M267.125 105.221C267.79 113.569 274.388 120.07 286.218 120.84V127H291.467V120.796C303.717 119.939 310.875 113.394 310.875 103.891C310.875 95.255 305.398 90.8012 295.606 88.4912L291.467 87.5112V70.7375C296.717 71.3325 300.06 74.2025 300.865 78.175H310.07C309.405 70.1338 302.51 63.8425 291.467 63.16V57H286.218V63.2912C275.761 64.315 268.63 70.6063 268.63 79.505C268.63 87.38 273.932 92.385 282.744 94.4413L286.218 95.2987V113.096C280.836 112.283 277.275 109.334 276.47 105.221H267.125ZM286.174 86.2687C281.011 85.07 278.211 82.6287 278.211 78.9537C278.211 74.8412 281.23 71.7613 286.218 70.86V86.26L286.174 86.2687ZM292.229 96.7075C298.503 98.16 301.399 100.514 301.399 104.67C301.399 109.412 297.794 112.668 291.467 113.263V96.5325L292.229 96.7075Z" fill="#C4A527"/>
<path d="M289 153.25C272.755 153.25 257.176 146.797 245.69 135.31C234.203 123.824 227.75 108.245 227.75 92C227.75 75.7555 234.203 60.1763 245.69 48.6897C257.176 37.2031 272.755 30.75 289 30.75C305.245 30.75 320.824 37.2031 332.31 48.6897C343.797 60.1763 350.25 75.7555 350.25 92C350.25 108.245 343.797 123.824 332.31 135.31C320.824 146.797 305.245 153.25 289 153.25ZM289 162C307.565 162 325.37 154.625 338.497 141.497C351.625 128.37 359 110.565 359 92C359 73.4348 351.625 55.6301 338.497 42.5025C325.37 29.375 307.565 22 289 22C270.435 22 252.63 29.375 239.503 42.5025C226.375 55.6301 219 73.4348 219 92C219 110.565 226.375 128.37 239.503 141.497C252.63 154.625 270.435 162 289 162Z" fill="#C4A527"/>
<path d="M289 140.125C276.236 140.125 263.996 135.055 254.97 126.03C245.945 117.004 240.875 104.764 240.875 92C240.875 79.2365 245.945 66.9957 254.97 57.9705C263.996 48.9453 276.236 43.875 289 43.875C301.764 43.875 314.004 48.9453 323.03 57.9705C332.055 66.9957 337.125 79.2365 337.125 92C337.125 104.764 332.055 117.004 323.03 126.03C314.004 135.055 301.764 140.125 289 140.125ZM289 144.5C295.894 144.5 302.721 143.142 309.091 140.504C315.46 137.865 321.248 133.998 326.123 129.123C330.998 124.248 334.865 118.46 337.504 112.091C340.142 105.721 341.5 98.8944 341.5 92C341.5 85.1056 340.142 78.2787 337.504 71.9091C334.865 65.5395 330.998 59.752 326.123 54.8769C321.248 50.0018 315.46 46.1347 309.091 43.4963C302.721 40.858 295.894 39.5 289 39.5C275.076 39.5 261.723 45.0312 251.877 54.8769C242.031 64.7226 236.5 78.0761 236.5 92C236.5 105.924 242.031 119.277 251.877 129.123C261.723 138.969 275.076 144.5 289 144.5Z" fill="#C4A527"/>
</g>
<defs>
<clipPath id="clip0_1127_1030">
<rect width="140" height="140" fill="white" transform="translate(219 22)"/>
</clipPath>
</defs>
</svg>
