<svg width="364" height="183" viewBox="0 0 364 183" fill="none" xmlns="http://www.w3.org/2000/svg">
<path d="M0 10C0 4.47716 4.47715 0 10 0H354C359.523 0 364 4.47715 364 10V173C364 178.523 359.523 183 354 183H10C4.47716 183 0 178.523 0 173V10Z" fill="#FFFDF3"/>
<g clip-path="url(#clip0_1127_1030)">
<path d="M251.125 105.221C251.79 113.569 258.388 120.07 270.218 120.84V127H275.467V120.796C287.717 119.939 294.875 113.394 294.875 103.891C294.875 95.255 289.398 90.8012 279.606 88.4912L275.467 87.5112V70.7375C280.717 71.3325 284.06 74.2025 284.865 78.175H294.07C293.405 70.1338 286.51 63.8425 275.467 63.16V57H270.218V63.2912C259.761 64.315 252.63 70.6063 252.63 79.505C252.63 87.38 257.932 92.385 266.744 94.4413L270.218 95.2987V113.096C264.836 112.283 261.275 109.334 260.47 105.221H251.125ZM270.174 86.2687C265.011 85.07 262.211 82.6287 262.211 78.9537C262.211 74.8412 265.23 71.7613 270.218 70.86V86.26L270.174 86.2687ZM276.229 96.7075C282.503 98.16 285.399 100.514 285.399 104.67C285.399 109.412 281.794 112.668 275.467 113.263V96.5325L276.229 96.7075Z" fill="#FFD639"/>
<path d="M273 153.25C256.755 153.25 241.176 146.797 229.69 135.31C218.203 123.824 211.75 108.245 211.75 92C211.75 75.7555 218.203 60.1763 229.69 48.6897C241.176 37.2031 256.755 30.75 273 30.75C289.245 30.75 304.824 37.2031 316.31 48.6897C327.797 60.1763 334.25 75.7555 334.25 92C334.25 108.245 327.797 123.824 316.31 135.31C304.824 146.797 289.245 153.25 273 153.25ZM273 162C291.565 162 309.37 154.625 322.497 141.497C335.625 128.37 343 110.565 343 92C343 73.4348 335.625 55.6301 322.497 42.5025C309.37 29.375 291.565 22 273 22C254.435 22 236.63 29.375 223.503 42.5025C210.375 55.6301 203 73.4348 203 92C203 110.565 210.375 128.37 223.503 141.497C236.63 154.625 254.435 162 273 162Z" fill="#FFD639"/>
<path d="M273 140.125C260.236 140.125 247.996 135.055 238.97 126.03C229.945 117.004 224.875 104.764 224.875 92C224.875 79.2365 229.945 66.9957 238.97 57.9705C247.996 48.9453 260.236 43.875 273 43.875C285.764 43.875 298.004 48.9453 307.03 57.9705C316.055 66.9957 321.125 79.2365 321.125 92C321.125 104.764 316.055 117.004 307.03 126.03C298.004 135.055 285.764 140.125 273 140.125ZM273 144.5C279.894 144.5 286.721 143.142 293.091 140.504C299.46 137.865 305.248 133.998 310.123 129.123C314.998 124.248 318.865 118.46 321.504 112.091C324.142 105.721 325.5 98.8944 325.5 92C325.5 85.1056 324.142 78.2787 321.504 71.9091C318.865 65.5395 314.998 59.752 310.123 54.8769C305.248 50.0018 299.46 46.1347 293.091 43.4963C286.721 40.858 279.894 39.5 273 39.5C259.076 39.5 245.723 45.0312 235.877 54.8769C226.031 64.7226 220.5 78.0761 220.5 92C220.5 105.924 226.031 119.277 235.877 129.123C245.723 138.969 259.076 144.5 273 144.5Z" fill="#FFD639"/>
</g>
<defs>
<clipPath id="clip0_1127_1030">
<rect width="140" height="140" fill="white" transform="translate(203 22)"/>
</clipPath>
</defs>
</svg>
