<svg width="364" height="183" viewBox="0 0 364 183" fill="none" xmlns="http://www.w3.org/2000/svg">
<path d="M0 10C0 4.47716 4.47715 0 10 0H354C359.523 0 364 4.47715 364 10V173C364 178.523 359.523 183 354 183H10C4.47716 183 0 178.523 0 173V10Z" fill="#FFDC4D"/>
<g clip-path="url(#clip0_1127_1030)">
<path d="M268.125 107.221C268.79 115.569 275.388 122.07 287.218 122.84V129H292.467V122.796C304.717 121.939 311.875 115.394 311.875 105.891C311.875 97.255 306.398 92.8012 296.606 90.4912L292.467 89.5112V72.7375C297.717 73.3325 301.06 76.2025 301.865 80.175H311.07C310.405 72.1338 303.51 65.8425 292.467 65.16V59H287.218V65.2912C276.761 66.315 269.63 72.6063 269.63 81.505C269.63 89.38 274.932 94.385 283.744 96.4413L287.218 97.2987V115.096C281.836 114.283 278.275 111.334 277.47 107.221H268.125ZM287.174 88.2687C282.011 87.07 279.211 84.6287 279.211 80.9537C279.211 76.8412 282.23 73.7613 287.218 72.86V88.26L287.174 88.2687ZM293.229 98.7075C299.503 100.16 302.399 102.514 302.399 106.67C302.399 111.412 298.794 114.668 292.467 115.263V98.5325L293.229 98.7075Z" fill="#8C730C"/>
<path d="M290 155.25C273.755 155.25 258.176 148.797 246.69 137.31C235.203 125.824 228.75 110.245 228.75 94C228.75 77.7555 235.203 62.1763 246.69 50.6897C258.176 39.2031 273.755 32.75 290 32.75C306.245 32.75 321.824 39.2031 333.31 50.6897C344.797 62.1763 351.25 77.7555 351.25 94C351.25 110.245 344.797 125.824 333.31 137.31C321.824 148.797 306.245 155.25 290 155.25ZM290 164C308.565 164 326.37 156.625 339.497 143.497C352.625 130.37 360 112.565 360 94C360 75.4348 352.625 57.6301 339.497 44.5025C326.37 31.375 308.565 24 290 24C271.435 24 253.63 31.375 240.503 44.5025C227.375 57.6301 220 75.4348 220 94C220 112.565 227.375 130.37 240.503 143.497C253.63 156.625 271.435 164 290 164Z" fill="#8C730C"/>
<path d="M290 142.125C277.236 142.125 264.996 137.055 255.97 128.03C246.945 119.004 241.875 106.764 241.875 94C241.875 81.2365 246.945 68.9957 255.97 59.9705C264.996 50.9453 277.236 45.875 290 45.875C302.764 45.875 315.004 50.9453 324.03 59.9705C333.055 68.9957 338.125 81.2365 338.125 94C338.125 106.764 333.055 119.004 324.03 128.03C315.004 137.055 302.764 142.125 290 142.125ZM290 146.5C296.894 146.5 303.721 145.142 310.091 142.504C316.46 139.865 322.248 135.998 327.123 131.123C331.998 126.248 335.865 120.46 338.504 114.091C341.142 107.721 342.5 100.894 342.5 94C342.5 87.1056 341.142 80.2787 338.504 73.9091C335.865 67.5395 331.998 61.752 327.123 56.8769C322.248 52.0018 316.46 48.1347 310.091 45.4963C303.721 42.858 296.894 41.5 290 41.5C276.076 41.5 262.723 47.0312 252.877 56.8769C243.031 66.7226 237.5 80.0761 237.5 94C237.5 107.924 243.031 121.277 252.877 131.123C262.723 140.969 276.076 146.5 290 146.5Z" fill="#8C730C"/>
</g>
<defs>
<clipPath id="clip0_1127_1030">
<rect width="140" height="140" fill="white" transform="translate(220 24)"/>
</clipPath>
</defs>
</svg>
